<svg width="1436" height="1696" viewBox="0 0 1436 1696" fill="none" xmlns="http://www.w3.org/2000/svg">
<path d="M102.633 1191.11C44.294 1149.54 32.8769 1064.87 34.4607 1027.73C-16.4371 1172.79 55.5271 1299.31 97.8715 1344.44C74.0596 1299.64 91.1242 1223.55 102.633 1191.11Z" fill="url(#paint0_linear)" stroke="#FA00B4" stroke-width="4"/>
<path d="M345.462 12.513C329.53 13.2668 291.637 46.6922 274.5 63.5C251.7 83.9585 211.333 155.024 194 188C146.03 279.143 120.698 445.127 114.012 516.867C114.004 516.959 113.986 517.035 113.953 517.122C89.2305 581.316 113.343 831.407 128.5 948.5C128.5 1020.9 180.833 1189 207 1264C220.477 1304.43 283.841 1302.7 314.665 1296.67C315.155 1296.57 315.478 1296.17 315.459 1295.67C314.402 1268.28 338.628 1180.41 351 1139.5C359.8 1098.7 418 1002.17 446 959C470.391 911.817 573.757 814.738 622.446 772.047C622.483 772.015 622.522 771.986 622.563 771.959C669.717 741.575 688.502 712.995 692 702.5C706.773 668.962 694.878 625.993 687.044 608.596C687.014 608.53 686.993 608.465 686.978 608.394C677.317 562.444 619.064 504.401 591.062 481.051C591.019 481.016 590.977 480.986 590.929 480.958C560.226 462.982 529.968 424.005 518.581 406.624C518.525 406.538 518.459 406.466 518.38 406.402C460.575 358.794 479.979 252.813 496.957 205.619C496.986 205.537 497.004 205.454 497.011 205.368C503.345 131.476 487.509 94.5798 478.65 85.1581C478.547 85.0482 478.479 84.9354 478.431 84.7926C475.251 75.4517 458.584 49.9827 416.5 21C374.791 -7.7238 352.565 2.80672 346.298 12.0419C346.105 12.3272 345.806 12.4967 345.462 12.513Z" fill="url(#paint1_linear)"/>
<path d="M518.5 913.5C460.58 981.805 411.802 1072.75 394.571 1109.85C394.522 1109.95 394.474 1110.03 394.393 1110.11C387.009 1117.89 357.432 1188.5 343.5 1223C313.727 1280.16 331.394 1280.33 344.207 1273.17C344.398 1273.06 344.595 1273.01 344.812 1273.03C354.661 1273.95 398.228 1262.43 419 1256.5C478.6 1235.7 605.833 1196.17 662 1179C765.016 1152.65 832.426 1146.19 853.388 1150.97C853.467 1150.99 853.532 1151 853.613 1151C909.374 1150.26 1112.4 1196.02 1207 1219C1281.12 1235.74 1309.78 1206.56 1314.94 1189.69C1314.98 1189.56 1315.04 1189.45 1315.13 1189.34C1332.98 1167.7 1328.49 1127.46 1324 1110C1308.8 1070 1296.67 1000.67 1292.5 971C1283.3 914.6 1322.33 847.5 1343 821C1409.53 728.569 1402.23 681.707 1390.15 669.643C1390.05 669.545 1389.98 669.44 1389.92 669.311C1380.39 645.725 1359.18 594.428 1239.5 567.5C1143.59 545.92 998.439 592.413 937.671 618.427C937.554 618.477 937.446 618.501 937.319 618.505C903.562 619.568 800.286 694.419 752.641 731.889C752.545 731.965 752.469 732.053 752.406 732.158C729.925 769.678 667.46 797.346 639 806.5C622.2 809.7 551.667 879.167 518.5 913.5Z" fill="url(#paint2_linear)"/>
<path d="M409.891 1273.02C364.046 1280.27 363.505 1329.92 368.983 1353.93C368.995 1353.98 369.002 1354.03 369.006 1354.08C378.433 1485.59 565.136 1558.46 657.413 1578.48C657.473 1578.49 657.526 1578.51 657.582 1578.53C736.002 1611.29 916.748 1613.16 997.424 1610C997.477 1610 997.521 1610 997.574 1610.01C1038.06 1614.77 1168.04 1590.99 1228 1578.5C1257.52 1574.91 1278.88 1554.78 1285.94 1545.08C1285.98 1545.03 1286.03 1544.98 1286.08 1544.93C1301.96 1530.56 1306.3 1502.84 1306.5 1490.63C1306.5 1490.54 1306.49 1490.45 1306.47 1490.37C1298.04 1456.48 1315.02 1447.99 1329.5 1436.5C1341.1 1427.3 1370.67 1423.67 1384 1423C1415.5 1422 1409.5 1416 1415 1410.5C1419.4 1406.1 1427.83 1378.67 1431.5 1365.5C1439.1 1327.1 1416.33 1307.83 1404 1303C1385.17 1298.33 1338.6 1284 1303 1264C1267.4 1244 1132.5 1210.67 1069.5 1196.5C1006.73 1178.51 882.776 1181.66 828.572 1185.49C828.522 1185.5 828.482 1185.5 828.433 1185.49C797.905 1183.14 656.25 1209.49 589.094 1222.98C589.03 1222.99 588.971 1223 588.905 1223C548.878 1223.05 453.11 1256.3 410.097 1272.96C410.03 1272.99 409.962 1273.01 409.891 1273.02Z" fill="url(#paint3_linear)"/>
<path d="M613 1671.5C301.705 1563.5 165.015 1297.78 134.657 1175.69C134.429 1174.77 133.161 1174.8 132.767 1175.66C4.15112 1455.71 344.257 1631.5 531 1684.5C554.167 1690 553.2 1698.9 568 1690.5C582.8 1682.1 621.167 1674.33 613 1671.5Z" fill="url(#paint4_linear)"/>
<path d="M345.462 12.513C329.53 13.2668 291.637 46.6922 274.5 63.5C251.7 83.9585 211.333 155.024 194 188C146.03 279.143 120.698 445.127 114.012 516.867C114.004 516.959 113.986 517.035 113.953 517.122C89.2305 581.316 113.343 831.407 128.5 948.5C128.5 1020.9 180.833 1189 207 1264C220.477 1304.43 283.841 1302.7 314.665 1296.67C315.155 1296.57 315.478 1296.17 315.459 1295.67C314.402 1268.28 338.628 1180.41 351 1139.5C359.8 1098.7 418 1002.17 446 959C470.391 911.817 573.757 814.738 622.446 772.047C622.483 772.015 622.522 771.986 622.563 771.959C669.717 741.575 688.502 712.995 692 702.5C706.773 668.962 694.878 625.993 687.044 608.596C687.014 608.53 686.993 608.465 686.978 608.394C677.317 562.444 619.064 504.401 591.062 481.051C591.019 481.016 590.977 480.986 590.929 480.958C560.226 462.982 529.968 424.005 518.581 406.624C518.525 406.538 518.459 406.466 518.38 406.402C460.575 358.794 479.979 252.813 496.957 205.619C496.986 205.537 497.004 205.454 497.011 205.368C503.345 131.476 487.509 94.5798 478.65 85.1581C478.547 85.0482 478.479 84.9354 478.431 84.7926C475.251 75.4517 458.584 49.9827 416.5 21C374.791 -7.7238 352.565 2.80672 346.298 12.0419C346.105 12.3272 345.806 12.4967 345.462 12.513Z" stroke="#D3006C" stroke-width="4"/>
<path d="M518.5 913.5C460.58 981.805 411.802 1072.75 394.571 1109.85C394.522 1109.95 394.474 1110.03 394.393 1110.11C387.009 1117.89 357.432 1188.5 343.5 1223C313.727 1280.16 331.394 1280.33 344.207 1273.17C344.398 1273.06 344.595 1273.01 344.812 1273.03C354.661 1273.95 398.228 1262.43 419 1256.5C478.6 1235.7 605.833 1196.17 662 1179C765.016 1152.65 832.426 1146.19 853.388 1150.97C853.467 1150.99 853.532 1151 853.613 1151C909.374 1150.26 1112.4 1196.02 1207 1219C1281.12 1235.74 1309.78 1206.56 1314.94 1189.69C1314.98 1189.56 1315.04 1189.45 1315.13 1189.34C1332.98 1167.7 1328.49 1127.46 1324 1110C1308.8 1070 1296.67 1000.67 1292.5 971C1283.3 914.6 1322.33 847.5 1343 821C1409.53 728.569 1402.23 681.707 1390.15 669.643C1390.05 669.545 1389.98 669.44 1389.92 669.311C1380.39 645.725 1359.18 594.428 1239.5 567.5C1143.59 545.92 998.439 592.413 937.671 618.427C937.554 618.477 937.446 618.501 937.319 618.505C903.562 619.568 800.286 694.419 752.641 731.889C752.545 731.965 752.469 732.053 752.406 732.158C729.925 769.678 667.46 797.346 639 806.5C622.2 809.7 551.667 879.167 518.5 913.5Z" stroke="#D3006C" stroke-width="4"/>
<path d="M409.891 1273.02C364.046 1280.27 363.505 1329.92 368.983 1353.93C368.995 1353.98 369.002 1354.03 369.006 1354.08C378.433 1485.59 565.136 1558.46 657.413 1578.48C657.473 1578.49 657.526 1578.51 657.582 1578.53C736.002 1611.29 916.748 1613.16 997.424 1610C997.477 1610 997.521 1610 997.574 1610.01C1038.06 1614.77 1168.04 1590.99 1228 1578.5C1257.52 1574.91 1278.88 1554.78 1285.94 1545.08C1285.98 1545.03 1286.03 1544.98 1286.08 1544.93C1301.96 1530.56 1306.3 1502.84 1306.5 1490.63C1306.5 1490.54 1306.49 1490.45 1306.47 1490.37C1298.04 1456.48 1315.02 1447.99 1329.5 1436.5C1341.1 1427.3 1370.67 1423.67 1384 1423C1415.5 1422 1409.5 1416 1415 1410.5C1419.4 1406.1 1427.83 1378.67 1431.5 1365.5C1439.1 1327.1 1416.33 1307.83 1404 1303C1385.17 1298.33 1338.6 1284 1303 1264C1267.4 1244 1132.5 1210.67 1069.5 1196.5C1006.73 1178.51 882.776 1181.66 828.572 1185.49C828.522 1185.5 828.482 1185.5 828.433 1185.49C797.905 1183.14 656.25 1209.49 589.094 1222.98C589.03 1222.99 588.971 1223 588.905 1223C548.878 1223.05 453.11 1256.3 410.097 1272.96C410.03 1272.99 409.962 1273.01 409.891 1273.02Z" stroke="#D3006C" stroke-width="4"/>
<path d="M613 1671.5C301.705 1563.5 165.015 1297.78 134.657 1175.69C134.429 1174.77 133.161 1174.8 132.767 1175.66C4.15112 1455.71 344.257 1631.5 531 1684.5C554.167 1690 553.2 1698.9 568 1690.5C582.8 1682.1 621.167 1674.33 613 1671.5Z" stroke="#D3006C" stroke-width="4"/>
<defs>
<linearGradient id="paint0_linear" x1="42.7177" y1="1026.74" x2="121" y2="1336" gradientUnits="userSpaceOnUse">
<stop stop-color="#C0004B"/>
<stop offset="1" stop-color="#FF0088"/>
</linearGradient>
<linearGradient id="paint1_linear" x1="1294" y1="318.5" x2="351.5" y2="1380.5" gradientUnits="userSpaceOnUse">
<stop stop-color="#FD00B9"/>
<stop offset="1" stop-color="#E40059"/>
</linearGradient>
<linearGradient id="paint2_linear" x1="1294" y1="318.5" x2="351.5" y2="1380.5" gradientUnits="userSpaceOnUse">
<stop stop-color="#FD00B9"/>
<stop offset="1" stop-color="#E40059"/>
</linearGradient>
<linearGradient id="paint3_linear" x1="1294" y1="318.5" x2="351.5" y2="1380.5" gradientUnits="userSpaceOnUse">
<stop stop-color="#FD00B9"/>
<stop offset="1" stop-color="#E40059"/>
</linearGradient>
<linearGradient id="paint4_linear" x1="1294" y1="318.5" x2="351.5" y2="1380.5" gradientUnits="userSpaceOnUse">
<stop stop-color="#FD00B9"/>
<stop offset="1" stop-color="#E40059"/>
</linearGradient>
</defs>
</svg>
